<?xml version="1.0" encoding="iso-8859-1"?>
<!-- Generator: Adobe Illustrator 19.0.0, SVG Export Plug-In . SVG Version: 6.00 Build 0)  -->
<svg version="1.1" id="Layer_1" xmlns="http://www.w3.org/2000/svg" xmlns:xlink="http://www.w3.org/1999/xlink" x="0px" y="0px"
	 viewBox="0 0 512 512" style="enable-background:new 0 0 512 512;" xml:space="preserve">
<circle style="fill:#FC6F58;" cx="256" cy="256" r="256"/>
<path style="fill:#F1543F;" d="M437.019,437.019c49.704-49.704,74.687-114.762,74.967-179.907L384.802,129.929l-148.339,143.31
	L127.691,382.605l129.383,129.383C322.231,511.716,387.305,486.734,437.019,437.019z"/>
<path style="fill:#FFD15D;" d="M118.088,358.286V153.715c0-19.677,15.951-35.628,35.628-35.628h204.571
	c19.677,0,35.628,15.951,35.628,35.628v204.571c0,19.677-15.951,35.628-35.628,35.628H153.716
	C134.039,393.912,118.088,377.961,118.088,358.286z"/>
<path style="fill:#F9B54C;" d="M358.286,118.088H256v275.825h102.285c19.677,0,35.628-15.951,35.628-35.628V153.714
	C393.912,134.039,377.961,118.088,358.286,118.088z"/>
<polygon style="fill:#324A5E;" points="334.429,316.244 256,237.811 177.571,316.242 149.533,288.206 256,181.738 362.467,288.208 
	"/>
<polygon style="fill:#2B3B4E;" points="362.467,288.208 256,181.738 256,237.813 334.429,316.244 "/>
<g>
</g>
<g>
</g>
<g>
</g>
<g>
</g>
<g>
</g>
<g>
</g>
<g>
</g>
<g>
</g>
<g>
</g>
<g>
</g>
<g>
</g>
<g>
</g>
<g>
</g>
<g>
</g>
<g>
</g>
</svg>
